<svg xmlns="http://www.w3.org/2000/svg" xml:space="preserve" width="800" height="800" fill="#faffc6" viewBox="0 0 512 512">
  <path d="M491.053 27.941h-52.711c-4.45 0-8.056 3.606-8.056 8.056s3.606 8.056 8.056 8.056h52.711a4.84 4.84 0 0 1 4.834 4.834v341.125a4.84 4.84 0 0 1-4.834 4.834H190.51v-18.432h277.032a8.055 8.055 0 0 0 8.056-8.056V72.492a8.055 8.055 0 0 0-8.056-8.056H190.51V44.054h222.051c4.45 0 8.056-3.606 8.056-8.056s-3.606-8.056-8.056-8.056H190.365C188.889 12.774 176.07.88 160.523.88H29.985C13.451.879 0 14.332 0 30.866v450.268c0 16.535 13.451 29.986 29.985 29.986H160.523c2.499 0 4.924-.313 7.245-.891 2.102.588 4.271.891 6.484.891h28.537c4.45 0 8.056-3.606 8.056-8.056s-3.606-8.056-8.056-8.056h-15.695a29.742 29.742 0 0 0 2.897-8.353l.032-.178a30.954 30.954 0 0 0 .276-1.849c.052-.443.092-.889.124-1.338.011-.142.025-.284.032-.426.033-.573.054-1.147.054-1.727v-2.24H335.988c4.443 0 8.056 3.614 8.056 8.056 0 4.443-3.614 8.056-8.056 8.056H230.826c-4.45 0-8.056 3.606-8.056 8.056s3.606 8.056 8.056 8.056h105.161c13.326 0 24.169-10.843 24.169-24.169s-10.843-24.169-24.169-24.169H282.51v-51.822h208.543c11.55 0 20.947-9.397 20.947-20.947V48.888c0-11.55-9.397-20.947-20.947-20.947zM190.51 80.548h268.976v279.753H190.51V80.548zm-58.989 414.459H58.986v-13.554h72.535v13.554zm42.875-459.011v445.138c0 .426-.026.848-.064 1.264-.014.153-.034.303-.054.454-.032.257-.071.51-.117.762-.033.186-.069.371-.11.554-.045.201-.1.397-.154.595-.223.817-.518 1.61-.884 2.366-.04.083-.078.167-.119.248-.132.26-.273.516-.421.767l-.114.188a13.932 13.932 0 0 1-2.552 3.08c-.024.021-.046.043-.07.063a13.873 13.873 0 0 1-4.546 2.701c-.023.008-.042.02-.064.029-1.444.51-2.988.802-4.605.802h-12.888v-21.612a8.055 8.055 0 0 0-8.056-8.056H50.93a8.055 8.055 0 0 0-8.056 8.056v21.611H29.985c-7.649 0-13.872-6.224-13.872-13.873V30.866c0-7.65 6.223-13.874 13.872-13.874h130.537c7.65 0 13.874 6.224 13.874 13.874v5.13zm53.333 426.786H190.51V410.96h37.219v51.822zm38.669 0h-22.556V410.96h22.556v51.822z"/>
  <path d="M140.596 344.211v-26.74a8.055 8.055 0 0 0-8.056-8.056h-15.86v-15.86a8.055 8.055 0 0 0-8.056-8.056H81.885a8.055 8.055 0 0 0-8.056 8.056v15.86h-15.86a8.055 8.055 0 0 0-8.056 8.056v26.74a8.055 8.055 0 0 0 8.056 8.056h15.859v15.858a8.055 8.055 0 0 0 8.056 8.056h26.74a8.055 8.055 0 0 0 8.056-8.056v-15.859h15.859a8.054 8.054 0 0 0 8.057-8.055zm-16.112-8.056h-15.86a8.055 8.055 0 0 0-8.056 8.056v15.858H89.94V344.21a8.055 8.055 0 0 0-8.056-8.056H66.025v-10.627h15.859a8.055 8.055 0 0 0 8.056-8.056v-15.86h10.627v15.86a8.055 8.055 0 0 0 8.056 8.056h15.859v10.628zM134.351 27.941c-14.439 0-26.188 11.748-26.188 26.188s11.748 26.189 26.188 26.189c14.439 0 26.188-11.748 26.188-26.189 0-14.44-11.748-26.188-26.188-26.188zm0 36.264c-5.556 0-10.075-4.52-10.075-10.076s4.519-10.075 10.075-10.075 10.075 4.519 10.075 10.075c0 5.555-4.519 10.076-10.075 10.076zM53.078 62.185a8.055 8.055 0 0 0 8.056-8.056 8.055 8.055 0 0 0-8.056-8.056H37.322a8.055 8.055 0 0 0-8.056 8.056 8.055 8.055 0 0 0 8.056 8.056h15.756zM43.052 96.355c-4.45 0-8.056 3.606-8.056 8.056s3.606 8.056 8.056 8.056h15.756c4.45 0 8.056-3.606 8.056-8.056s-3.606-8.056-8.056-8.056H43.052zM87.377 112.468h15.756c4.45 0 8.056-3.606 8.056-8.056s-3.606-8.056-8.056-8.056H87.377c-4.45 0-8.056 3.606-8.056 8.056s3.606 8.056 8.056 8.056zM147.456 96.355H131.7c-4.45 0-8.056 3.606-8.056 8.056s3.606 8.056 8.056 8.056h15.756c4.45 0 8.056-3.606 8.056-8.056s-3.606-8.056-8.056-8.056zM43.052 150.422h15.756a8.055 8.055 0 0 0 8.056-8.056 8.055 8.055 0 0 0-8.056-8.056H43.052a8.055 8.055 0 0 0-8.056 8.056 8.054 8.054 0 0 0 8.056 8.056zM87.377 150.422h15.756a8.055 8.055 0 0 0 8.056-8.056 8.055 8.055 0 0 0-8.056-8.056H87.377a8.055 8.055 0 0 0-8.056 8.056 8.055 8.055 0 0 0 8.056 8.056zM147.456 134.31H131.7c-4.45 0-8.056 3.606-8.056 8.056s3.606 8.056 8.056 8.056h15.756c4.45 0 8.056-3.606 8.056-8.056s-3.606-8.056-8.056-8.056zM58.808 394.846H43.052a8.055 8.055 0 0 0-8.056 8.056 8.056 8.056 0 0 0 8.056 8.056h15.756a8.055 8.055 0 0 0 8.056-8.056 8.055 8.055 0 0 0-8.056-8.056zM103.133 394.846H87.377a8.055 8.055 0 0 0-8.056 8.056 8.055 8.055 0 0 0 8.056 8.056h15.756a8.055 8.055 0 0 0 8.056-8.056 8.054 8.054 0 0 0-8.056-8.056zM147.456 394.846H131.7a8.055 8.055 0 0 0-8.056 8.056 8.055 8.055 0 0 0 8.056 8.056h15.756a8.055 8.055 0 0 0 8.056-8.056 8.055 8.055 0 0 0-8.056-8.056zM58.808 432.801H43.052c-4.45 0-8.056 3.606-8.056 8.056s3.607 8.056 8.056 8.056h15.756c4.45 0 8.056-3.606 8.056-8.056s-3.606-8.056-8.056-8.056zM103.133 432.801H87.377c-4.45 0-8.056 3.606-8.056 8.056s3.606 8.056 8.056 8.056h15.756c4.45 0 8.056-3.606 8.056-8.056s-3.606-8.056-8.056-8.056zM147.456 432.801H131.7c-4.45 0-8.056 3.606-8.056 8.056s3.606 8.056 8.056 8.056h15.756c4.45 0 8.056-3.606 8.056-8.056s-3.606-8.056-8.056-8.056zM43.052 188.378h15.756c4.45 0 8.056-3.606 8.056-8.056s-3.606-8.056-8.056-8.056H43.052c-4.45 0-8.056 3.606-8.056 8.056s3.606 8.056 8.056 8.056zM87.377 188.378h15.756c4.45 0 8.056-3.606 8.056-8.056s-3.606-8.056-8.056-8.056H87.377c-4.45 0-8.056 3.606-8.056 8.056s3.606 8.056 8.056 8.056zM147.456 172.265H131.7c-4.45 0-8.056 3.606-8.056 8.056s3.606 8.056 8.056 8.056h15.756c4.45 0 8.056-3.606 8.056-8.056s-3.606-8.056-8.056-8.056zM43.052 226.332h15.756a8.055 8.055 0 0 0 8.056-8.056 8.055 8.055 0 0 0-8.056-8.056H43.052a8.055 8.055 0 0 0-8.056 8.056 8.054 8.054 0 0 0 8.056 8.056zM87.377 226.332h15.756a8.055 8.055 0 0 0 8.056-8.056 8.055 8.055 0 0 0-8.056-8.056H87.377a8.055 8.055 0 0 0-8.056 8.056 8.055 8.055 0 0 0 8.056 8.056zM147.456 210.22H131.7a8.055 8.055 0 0 0-8.056 8.056 8.055 8.055 0 0 0 8.056 8.056h15.756a8.055 8.055 0 0 0 8.056-8.056 8.055 8.055 0 0 0-8.056-8.056zM65.215 264.056h15.756c4.45 0 8.056-3.606 8.056-8.056s-3.606-8.056-8.056-8.056H65.215A8.056 8.056 0 0 0 57.159 256a8.055 8.055 0 0 0 8.056 8.056zM101.482 255.999a8.055 8.055 0 0 0 8.056 8.056h15.756c4.45 0 8.056-3.606 8.056-8.056s-3.606-8.056-8.056-8.056h-15.756a8.055 8.055 0 0 0-8.056 8.056zM212.008 226.332a8.037 8.037 0 0 0 5.698-2.359l56.118-56.117a8.057 8.057 0 0 0-11.394-11.394l-56.118 56.117a8.057 8.057 0 0 0 5.696 13.753zM315.581 216.253l-53.151 53.151a8.057 8.057 0 1 0 11.396 11.394l53.151-53.151a8.057 8.057 0 1 0-11.396-11.394zM317.873 156.462l-88.775 88.776a8.058 8.058 0 0 0-.001 11.394 8.035 8.035 0 0 0 5.698 2.359 8.037 8.037 0 0 0 5.698-2.359l88.774-88.776a8.057 8.057 0 0 0-11.394-11.394zM212.198 262.136l-5.543 5.543a8.057 8.057 0 1 0 11.396 11.394l5.543-5.543a8.057 8.057 0 1 0-11.396-11.394z"/>
</svg>
