<svg xmlns="http://www.w3.org/2000/svg" width="800" height="800" fill="#faffc6" viewBox="0 0 50 50">
  <path d="M36.969 0c-.551.016-.98.48-.969 1.031A.99.99 0 0 0 37 2h.031c.13-.016 3.64-.016 7.25 3.688C47.914 9.41 48 12.968 48 13a1 1 0 1 0 2 0c0-.176-.047-4.344-4.281-8.688C41.457-.054 37.164-.011 36.969 0ZM37 6c-.547 0-.992.453-1 1-.008.547.453.988 1 1 .066 0 1.629.066 3.281 1.719C41.934 11.37 42 12.945 42 13a1 1 0 1 0 2 0c0-.098-.016-2.453-2.281-4.719C39.453 6.016 37.098 6 37 6Zm-8.281.031a4.448 4.448 0 0 0-3.032 1.157L1.188 31.78c-1.593 1.594-1.605 4.203 0 5.938l11.22 11.187a4.058 4.058 0 0 0 2.905 1.188c1.098 0 2.157-.41 3-1.188l24.532-24.562c1.527-1.785 1.527-4.38-.032-5.938L31.595 7.188c-.766-.766-1.801-1.153-2.875-1.157ZM28 15c3.867 0 7 3.133 7 7s-3.133 7-7 7-7-3.133-7-7 3.133-7 7-7Zm0 5a1.999 1.999 0 1 0 0 4 1.999 1.999 0 1 0 0-4Zm-13 7a1.999 1.999 0 1 1 0 4 1.999 1.999 0 1 1 0-4Zm-5 5a1.999 1.999 0 1 1 0 4 1.999 1.999 0 1 1 0-4Zm11 1a1.999 1.999 0 1 1 0 4 1.999 1.999 0 1 1 0-4Zm-5 5a1.999 1.999 0 1 1 0 4 1.999 1.999 0 1 1 0-4Z"/>
</svg>
